@startuml

package "library" #DDDDDD {

	class libraryManager {

		+维护图书()
		+归还图书()
		+借还图书()
		+维护读者信息()
	}
	class reader {

		+查询借阅图书信息()
		+预订图书()
		+取消预订图书()
	}
	class visitor {
		+查询图书信息()
	}

	class book {
	 	-书名
	 	-ISBN号
	 	-总量
	 	-库存
	 	-价格
	 	-出版社
	 	-简介
	 	-作者
	}

	class order {
	 	-读者姓名
	 	-图书ISBN号
	 	-借出时间
	 	-归还期限
	}

	 note "<color:white>省略Getter和Setter方法。</color>" as note1

	book .. note1
	note1 .. 借书记录
	visitor <|-- reader : 注册登录
	reader "1" *-- "N" order : 借书和还书
	order "1" o-- "1" book : 一一对应
	order "N" -- "1" libraryManager : 登记和归还
	libraryManager "N" -- "N" book : 维护图书
	libraryManager "N" -- "N" reader : 维护读者信息


}


@enduml